PathFileType	4	(X/Y/Z)	C:\Users\willi\Documents\UniDataLokal\DATA_Hans_PhD\TD06\B\3DGAIT_B_W12\marker_experimental.trc
DataRate	CameraRate	NumFrames	NumMarkers	Units	OrigDataRate	OrigDataStartFrame	OrigNumFrames
100.000000	100.000000	4	86	mm	100.000000	49	99
Frame#	Time	RBAK			C7			CLAV			T10			STRN			RASI			RPSI			LPSI			LASI			LPELV			RPELV			RTHI1			RTHI2			RTHI3			RTHI			RKNE			RPAT			RLKNEL			RLKNEM			RLPAT			RTIB1			RTIB2			RTIB3			RTIB			RANK			RHEEL			RTOE			RM5			LTHI1			LTHI2			LTHI3			LTHI			LKNE			LPAT			LLKNE			LLKNEM			LLPAT			LTIB1			LTIB2			LTIB3			LTIB			LANK			LHEEL			LTOE			LM5			*45			*46			*47			*48			*49			*50			*51			*52			*53			*54			*55			*56			*57			*58			*59			*60			*61			*62			*63			*64			*65			*66			*67			*68			*69			*70			*71			*72			*73			*74			*75			*76			*77			*78			*79			*80			*81			*82			*83			*84			*85			
		X1	Y1	Z1	X2	Y2	Z2	X3	Y3	Z3	X4	Y4	Z4	X5	Y5	Z5	X6	Y6	Z6	X7	Y7	Z7	X8	Y8	Z8	X9	Y9	Z9	X10	Y10	Z10	X11	Y11	Z11	X12	Y12	Z12	X13	Y13	Z13	X14	Y14	Z14	X15	Y15	Z15	X16	Y16	Z16	X17	Y17	Z17	X18	Y18	Z18	X19	Y19	Z19	X20	Y20	Z20	X21	Y21	Z21	X22	Y22	Z22	X23	Y23	Z23	X24	Y24	Z24	X25	Y25	Z25	X26	Y26	Z26	X27	Y27	Z27	X28	Y28	Z28	X29	Y29	Z29	X30	Y30	Z30	X31	Y31	Z31	X32	Y32	Z32	X33	Y33	Z33	X34	Y34	Z34	X35	Y35	Z35	X36	Y36	Z36	X37	Y37	Z37	X38	Y38	Z38	X39	Y39	Z39	X40	Y40	Z40	X41	Y41	Z41	X42	Y42	Z42	X43	Y43	Z43	X44	Y44	Z44	X45	Y45	Z45	X46	Y46	Z46	X47	Y47	Z47	X48	Y48	Z48	X49	Y49	Z49	X50	Y50	Z50	X51	Y51	Z51	X52	Y52	Z52	X53	Y53	Z53	X54	Y54	Z54	X55	Y55	Z55	X56	Y56	Z56	X57	Y57	Z57	X58	Y58	Z58	X59	Y59	Z59	X60	Y60	Z60	X61	Y61	Z61	X62	Y62	Z62	X63	Y63	Z63	X64	Y64	Z64	X65	Y65	Z65	X66	Y66	Z66	X67	Y67	Z67	X68	Y68	Z68	X69	Y69	Z69	X70	Y70	Z70	X71	Y71	Z71	X72	Y72	Z72	X73	Y73	Z73	X74	Y74	Z74	X75	Y75	Z75	X76	Y76	Z76	X77	Y77	Z77	X78	Y78	Z78	X79	Y79	Z79	X80	Y80	Z80	X81	Y81	Z81	X82	Y82	Z82	X83	Y83	Z83	X84	Y84	Z84	X85	Y85	Z85	X86	Y86	Z86	

50	0.49	1123.94677734375	1048.166870117188	-189.4618072509764	1133.108642578125	1126.934448242188	-296.0005187988279	1236.636108398438	1067.59423828125	-304.6957092285154	1103.801147460938	898.1062011718751	-294.7110900878904	1279.500366210938	953.2542724609376	-303.8635559082029	1195.253295898438	763.8472900390626	-190.1677398681638	1077.448364257812	794.9733886718751	-254.4061889648436	1084.615478515625	792.4956665039064	-342.9390563964841	1210.230712890625	755.2813720703126	-384.2910156249998	1175.485107421875	795.0588989257814	-408.8092346191404	1147.892578125	811.2050170898439	-179.5378417968748	1119.435424804688	469.7033081054688	-215.4630889892576	1113.948608398438	515.1313476562501	-164.8021392822264	1068.449584960938	430.3271179199219	-184.5204620361326	1039.649658203125	475.2980346679688	-131.6193542480467	1024.082397460938	403.6962890625001	-182.8930969238279	1075.188110351562	387.8215026855469	-225.1013183593748	1014.311157226562	380.5483093261719	-188.1250915527342	1007.23681640625	372.2656555175782	-286.2751159667967	1032.350830078125	338.5108642578126	-223.0295715332029	991.3746337890625	273.3919677734376	-213.439010620117	938.64306640625	252.3070373535157	-178.715377807617	935.4093627929688	199.096420288086	-219.7285919189451	892.3365478515625	221.6930389404297	-152.7027893066405	831.7398071289062	113.6062011718751	-204.8633728027342	784.482666015625	123.9292449951172	-247.4760437011717	918.9243774414062	34.16019058227545	-232.8858642578123	888.3658447265625	20.50439071655279	-186.423873901367	1244.647338867188	539.1773071289064	-414.7184448242185	1290.380615234375	509.3033752441407	-376.1547546386716	1274.1923828125	447.3890380859376	-395.8643798828123	1257.975463867188	480.4432373046876	-446.4137878417966	1289.444458007812	388.6159667968751	-390.1947937011716	1335.938110351562	416.9125976562501	-355.8413085937498	1289.483520507812	359.8107299804688	-391.3764038085935	1304.651733398438	361.0236511230469	-289.7405700683591	1342.679809570312	365.2785034179688	-352.6961975097654	1369.404052734375	264.6009216308594	-368.2419433593748	1341.693603515625	203.842498779297	-392.9295959472654	1400.9150390625	173.5734252929688	-360.5173034667966	1338.38134765625	147.9900207519532	-416.6484374999998	1400.052612304688	63.88992309570321	-372.4331359863278	1367.31982421875	33.1066207885743	-331.3636779785154	1514.6787109375	89.21533966064463	-358.4836120605466	1498.654663085938	61.02093887329111	-398.1627502441403	nan	nan	nan	nan	nan	nan	nan	nan	nan	nan	nan	nan	nan	nan	nan	nan	nan	nan	nan	nan	nan	nan	nan	nan	nan	nan	nan	nan	nan	nan	nan	nan	nan	nan	nan	nan	nan	nan	nan	nan	nan	nan	nan	nan	nan	nan	nan	nan	nan	nan	nan	nan	nan	nan	nan	nan	nan	nan	nan	nan	nan	nan	nan	nan	nan	nan	nan	nan	nan	nan	nan	nan	nan	nan	nan	nan	nan	nan	nan	nan	nan	nan	nan	nan	nan	nan	nan	nan	nan	nan	nan	nan	nan	nan	nan	nan	nan	nan	nan	nan	nan	nan	nan	nan	nan	nan	nan	nan	nan	nan	nan	nan	nan	nan	nan	nan	nan	nan	nan	nan	nan	nan	nan	
51	0.5	1139.092529296875	1046.578491210938	-191.7036743164061	1148.598266601562	1124.991333007812	-297.770568847656	1252.408203125	1066.009399414062	-306.3688354492185	1119.826416015625	896.0997924804689	-296.1646423339841	1295.600219726562	951.8359375000001	-305.2608947753904	1211.515502929688	761.9492797851564	-190.9492950439451	1093.511962890625	792.4409790039064	-255.6187438964842	1100.9814453125	790.4056396484376	-344.0539855957029	1226.970947265625	754.3154907226564	-385.0287780761716	1192.212524414062	793.3497924804689	-409.5881347656248	1163.86669921875	809.2955322265626	-180.4925689697263	1138.501831054688	466.7056579589844	-214.3471832275389	1131.645385742188	512.7650756835939	-164.5347900390623	1087.298706054688	427.2875671386719	-183.8910217285154	1057.087768554688	472.7339172363282	-132.0716857910154	1042.55322265625	400.4375000000001	-182.3898620605467	1094.740844726562	383.4305725097657	-223.4703216552732	1032.730346679688	377.2481079101563	-187.4801940917967	1027.296142578125	367.9207458496094	-285.6695861816405	1049.784790039062	334.4490051269532	-221.6088104248045	1005.125549316406	270.8420715332032	-212.390670776367	951.3062744140625	252.6071166992188	-178.3494873046873	946.2654418945312	199.2799072265626	-218.9561462402342	903.1791381835938	224.5073394775391	-152.8350372314451	838.5596923828125	118.8812942504883	-204.8930053710936	792.9282836914062	131.7129669189454	-248.4703063964842	919.3668823242188	33.6412086486817	-232.7791290283201	888.2260131835938	21.81077194213873	-186.8421325683592	1263.72314453125	538.7062377929689	-415.2500915527341	1309.707153320312	509.1693115234376	-376.5773010253904	1293.815795898438	447.0820922851563	-395.9277343749998	1277.343505859375	479.7929382324219	-446.6803588867185	1309.174438476562	388.0632324218751	-390.186828613281	1355.18896484375	416.2139587402344	-355.6146545410154	1309.033325195312	358.8974609375001	-391.1976623535154	1323.45556640625	360.6899414062501	-289.2569580078123	1361.57958984375	364.1625671386719	-351.9961853027341	1385.426879882812	261.0692138671876	-366.1477050781248	1355.572509765625	201.0973510742188	-390.3718261718748	1413.29931640625	168.9925842285157	-357.2969055175778	1350.498046875	144.9687805175782	-413.6577453613279	1407.430053710938	59.87337112426766	-368.4848327636716	1372.782470703125	31.61668014526376	-327.5569152832029	1522.93359375	77.97747039794932	-353.6587219238278	1505.218383789062	51.13863372802744	-393.5668334960935	nan	nan	nan	nan	nan	nan	nan	nan	nan	nan	nan	nan	nan	nan	nan	nan	nan	nan	nan	nan	nan	nan	nan	nan	nan	nan	nan	nan	nan	nan	nan	nan	nan	nan	nan	nan	nan	nan	nan	nan	nan	nan	nan	nan	nan	nan	nan	nan	nan	nan	nan	nan	nan	nan	nan	nan	nan	nan	nan	nan	nan	nan	nan	nan	nan	nan	nan	nan	nan	nan	nan	nan	nan	nan	nan	nan	nan	nan	nan	nan	nan	nan	nan	nan	nan	nan	nan	nan	nan	nan	nan	nan	nan	nan	nan	nan	nan	nan	nan	nan	nan	nan	nan	nan	nan	nan	nan	nan	nan	nan	nan	nan	nan	nan	nan	nan	nan	nan	nan	nan	nan	nan	nan	
52	0.51	1154.250610351562	1045.296020507812	-193.9002227783201	1164.024780273438	1123.35302734375	-299.4847717285154	1268.130859375	1064.75390625	-308.0202636718748	1135.91650390625	894.3630371093751	-297.4398193359373	1311.7275390625	950.7531127929689	-306.6640624999998	1227.882934570312	760.1516723632814	-191.7110137939451	1109.615478515625	790.1290893554689	-256.6324462890623	1117.307739257812	788.6810302734376	-344.9637756347654	1243.615234375	753.7821655273439	-385.7658691406248	1208.813720703125	792.0302124023439	-410.2747497558591	1180.002807617188	807.5419311523439	-181.3271636962888	1158.767578125	463.5716247558594	-213.1420288085936	1150.379272460938	510.2814025878907	-164.2453308105467	1107.50927734375	423.9064025878907	-183.1234283447264	1075.710083007812	469.6874389648438	-132.4362945556639	1062.497192382812	396.7027282714844	-181.7113189697264	1115.748168945312	378.6020202636719	-221.5428924560545	1052.59228515625	373.4808654785157	-186.6452178955076	1048.979125976562	362.9707641601563	-284.737335205078	1068.649658203125	329.9478454589844	-219.9212951660154	1020.257385253906	268.1236267089844	-211.1266632080076	965.3984375	252.884262084961	-177.866500854492	958.5218505859375	199.5711669921876	-218.0765991210936	915.3916625976562	227.5392303466797	-152.941436767578	846.8729858398438	124.592643737793	-205.0270233154295	803.4231567382812	140.1850585937501	-249.7678375244139	919.856201171875	33.29281616210943	-232.772735595703	888.1698608398438	23.70208930969244	-187.5294189453123	1282.703369140625	538.6621704101564	-415.9922180175779	1328.867553710938	509.3582763671876	-377.1593627929685	1313.261962890625	447.1328430175782	-396.281066894531	1296.702880859375	479.6129760742188	-447.2059936523435	1328.738647460938	387.8678588867188	-390.4305725097654	1374.123901367188	415.7495727539063	-354.971740722656	1328.369750976562	358.3639831542969	-391.3300170898435	1341.048583984375	360.3469238281251	-288.9652404785154	1380.067016601562	363.2067871093751	-351.1606140136716	1400.793212890625	257.7815856933595	-364.1632995605466	1368.952880859375	198.8653259277345	-388.3774108886716	1424.727905273438	164.6985778808595	-354.299133300781	1362.398315429688	142.7380981445313	-411.5423278808591	1413.758178710938	56.59938430786141	-365.3045349121091	1376.868286132812	30.92271804809579	-324.9631347656248	1530.1591796875	66.77252197265635	-348.5868530273435	1510.810424804688	41.70984268188486	-389.2581481933591	nan	nan	nan	nan	nan	nan	nan	nan	nan	nan	nan	nan	nan	nan	nan	nan	nan	nan	nan	nan	nan	nan	nan	nan	nan	nan	nan	nan	nan	nan	nan	nan	nan	nan	nan	nan	nan	nan	nan	nan	nan	nan	nan	nan	nan	nan	nan	nan	nan	nan	nan	nan	nan	nan	nan	nan	nan	nan	nan	nan	nan	nan	nan	nan	nan	nan	nan	nan	nan	nan	nan	nan	nan	nan	nan	nan	nan	nan	nan	nan	nan	nan	nan	nan	nan	nan	nan	nan	nan	nan	nan	nan	nan	nan	nan	nan	nan	nan	nan	nan	nan	nan	nan	nan	nan	nan	nan	nan	nan	nan	nan	nan	nan	nan	nan	nan	nan	nan	nan	nan	nan	nan	nan	
53	0.52	1169.385620117188	1044.357788085938	-196.0282897949216	1179.36865234375	1122.058837890625	-301.1329956054685	1283.78076171875	1063.855102539062	-309.6206054687498	1152.013305664062	892.9440917968751	-298.5419921874998	1327.833984375	950.0203247070314	-308.0350952148435	1244.282348632812	758.5050048828126	-192.4520721435545	1125.70068359375	788.0914916992189	-257.4555969238279	1133.538696289062	787.3601074218751	-345.6771240234373	1260.106201171875	753.6953735351564	-386.5079650878904	1225.207885742188	791.1348266601564	-410.8850097656248	1196.22314453125	805.9905395507814	-182.0462799072263	1180.146728515625	460.4031982421876	-211.922653198242	1170.106323242188	507.7604064941407	-163.9718017578123	1129.030151367188	420.2803955078126	-182.2717590332029	1095.497314453125	466.2116088867188	-132.7309875488279	1083.897338867188	392.5693359375001	-180.9131469726561	1138.111694335938	373.4736938476563	-219.4423370361326	1073.868286132812	369.3273315429688	-185.7001037597654	1072.173583984375	357.5827331542969	-283.5573730468748	1088.93212890625	325.1276550292969	-218.1036682128904	1036.838500976562	265.3152160644532	-209.7608795166014	981.03955078125	253.1427154541016	-177.3037261962889	972.282958984375	200.0191497802735	-217.1572113037108	929.2070922851562	230.717269897461	-152.9945831298826	856.8743286132812	130.6780395507813	-205.2394409179686	816.114990234375	149.2728118896485	-251.199996948242	920.7195434570312	33.36177444458013	-232.9447784423826	888.5979614257812	26.34631919860845	-188.5391540527342	1301.39892578125	539.0281372070314	-416.9302673339841	1347.665893554688	509.8584899902344	-377.9003906249998	1332.332885742188	447.5444335937501	-396.956359863281	1315.88330078125	479.9629821777344	-448.0119323730466	1347.909057617188	388.0155029296876	-390.9689025878904	1392.614379882812	415.6053161621095	-354.104064941406	1347.256225585938	358.2108764648438	-391.809875488281	1357.45849609375	360.1187133789063	-288.9804992675779	1397.97216796875	362.4563903808595	-350.3586120605466	1415.3818359375	254.880340576172	-362.4565124511716	1381.786987304688	197.2640228271485	-387.0968017578123	1435.219116210938	160.9243774414063	-351.7259826660153	1374.013061523438	141.4139709472657	-410.4256286621091	1419.21923828125	54.24180221557626	-363.0334167480466	1379.977783203125	31.0225372314454	-323.6020507812498	1536.45068359375	56.50126266479501	-343.778137207031	1515.6083984375	33.41637420654306	-385.6874389648435	nan	nan	nan	nan	nan	nan	nan	nan	nan	nan	nan	nan	nan	nan	nan	nan	nan	nan	nan	nan	nan	nan	nan	nan	nan	nan	nan	nan	nan	nan	nan	nan	nan	nan	nan	nan	nan	nan	nan	nan	nan	nan	nan	nan	nan	nan	nan	nan	nan	nan	nan	nan	nan	nan	nan	nan	nan	nan	nan	nan	nan	nan	nan	nan	nan	nan	nan	nan	nan	nan	nan	nan	nan	nan	nan	nan	nan	nan	nan	nan	nan	nan	nan	nan	nan	nan	nan	nan	nan	nan	nan	nan	nan	nan	nan	nan	nan	nan	nan	nan	nan	nan	nan	nan	nan	nan	nan	nan	nan	nan	nan	nan	nan	nan	nan	nan	nan	nan	nan	nan	nan	nan	nan	
